<?xml version="1.0" encoding="utf-8"?>
<!-- Generator: Adobe Illustrator 16.0.0, SVG Export Plug-In . SVG Version: 6.00 Build 0)  -->
<!DOCTYPE svg PUBLIC "-//W3C//DTD SVG 1.1//EN" "http://www.w3.org/Graphics/SVG/1.1/DTD/svg11.dtd">
<svg version="1.1" id="Layer_1" xmlns="http://www.w3.org/2000/svg" xmlns:xlink="http://www.w3.org/1999/xlink" x="0px" y="0px"
	 width="228px" height="152px" viewBox="0 0 228 152" enable-background="new 0 0 228 152" xml:space="preserve">
<g>
	<g>
		<g>
			<path fill="#27AE60" d="M228,136.8c0,8.396-6.805,15.2-15.2,15.2H15.2C6.805,152,0,145.195,0,136.8V15.2C0,6.805,6.805,0,15.2,0
				h197.6c8.396,0,15.2,6.805,15.2,15.2V136.8z"/>
		</g>
	</g>
	<g>
		<g opacity="0.1">
			<path d="M33.841,77.814c0-12.36,9.359-20.699,21.659-20.699c9.659,0,14.819,5.459,17.459,10.739l-8.879,4.2
				c-1.32-3.18-4.74-5.82-8.58-5.82c-6.54,0-11.16,5.04-11.16,11.58c0,6.539,4.62,11.58,11.16,11.58c3.84,0,7.26-2.641,8.58-5.82
				l8.879,4.199c-2.58,5.16-7.8,10.74-17.459,10.74C43.2,98.514,33.841,90.113,33.841,77.814z"/>
			<path d="M104.099,97.793l-1.98-5.76H86.34l-1.98,5.76h-11.7l15.06-40.018h12.959l15.12,40.018H104.099z M94.199,67.975
				l-5.1,15.06h10.2L94.199,67.975z"/>
			<path d="M115.619,92.154l5.46-7.74c2.88,2.88,7.319,5.279,12.779,5.279c3.54,0,5.7-1.379,5.7-3.299
				c0-5.461-22.68-1.08-22.68-16.5c0-6.72,5.7-12.719,15.96-12.719c6.419,0,11.999,1.92,16.259,5.58l-5.64,7.38
				c-3.359-2.76-7.739-4.14-11.699-4.14c-3,0-4.319,1.2-4.319,2.88c0,5.1,22.619,1.38,22.619,16.259c0,8.04-5.94,13.38-16.68,13.38
				C125.279,98.514,119.639,95.994,115.619,92.154z"/>
			<path d="M181.797,97.793V81.715h-16.619v16.078h-10.319V57.775h10.319v14.939h16.619V57.775h10.32v40.018H181.797z"/>
		</g>
		<g>
			<path fill="#FFFFFF" d="M33.841,72.145c0-12.36,9.359-20.699,21.659-20.699c9.659,0,14.819,5.459,17.459,10.739l-8.879,4.2
				c-1.32-3.18-4.74-5.82-8.58-5.82c-6.54,0-11.16,5.04-11.16,11.58c0,6.54,4.62,11.58,11.16,11.58c3.84,0,7.26-2.641,8.58-5.82
				l8.879,4.2c-2.58,5.159-7.8,10.739-17.459,10.739C43.2,92.844,33.841,84.444,33.841,72.145z"/>
			<path fill="#FFFFFF" d="M104.099,92.124l-1.98-5.76H86.34l-1.98,5.76h-11.7l15.06-40.019h12.959l15.12,40.019H104.099z
				 M94.199,62.305l-5.1,15.06h10.2L94.199,62.305z"/>
			<path fill="#FFFFFF" d="M115.619,86.484l5.46-7.74c2.88,2.881,7.319,5.28,12.779,5.28c3.54,0,5.7-1.38,5.7-3.3
				c0-5.46-22.68-1.08-22.68-16.5c0-6.72,5.7-12.719,15.96-12.719c6.419,0,11.999,1.92,16.259,5.58l-5.64,7.38
				c-3.359-2.76-7.739-4.14-11.699-4.14c-3,0-4.319,1.2-4.319,2.88c0,5.1,22.619,1.38,22.619,16.26
				c0,8.039-5.94,13.379-16.68,13.379C125.279,92.844,119.639,90.324,115.619,86.484z"/>
			<path fill="#FFFFFF" d="M181.797,92.124V76.045h-16.619v16.079h-10.319V52.105h10.319v14.939h16.619V52.105h10.32v40.019H181.797
				z"/>
		</g>
	</g>
</g>
</svg>
